# xmcd
#
# Track frame offsets:
# 150
# 17000
# 33587
# 49231
# 66598
# 82027
# 99706
# 120040
# 134687
# 152243
# 165122
# 182403
# 197308
# 205142
# 224492
# 243537
#
# Disc length: 3669 seconds
#
#
# Revision: 0
# Processed by: cddbd v1.5.2PL0 Copyright (c) Steve Scherf et al.
# Submitted via: FreeRIP 2.944 
#
DISCID=dc0e5310
DTITLE=David Wilkie and Cowbow Celtic - The Drover Road
DYEAR=2001
DGENRE=Folk
TTITLE0=The Drover Road to Amulree
TTITLE1=Aura Lea
TTITLE2=Bonnie Dundee-Fareweel Tae Tarwathie-The Railroad Corral
TTITLE3=Mandocarolan
TTITLE4=Darcy Farrow
TTITLE5=Lorena-The Yellow Rose of Texas-Field of the Yellow-Haired Lad
TTITLE6=The Wild Rippling Water
TTITLE7=O'Carolan's Ramble to Cashel
TTITLE8=Whoopie Ti Yi Yo, Git Along Little Dogies
TTITLE9=Waxwell's Thorns
TTITLE10=The Betrayal of Johnnie Armstrong
TTITLE11=Black Upon Tan
TTITLE12=Jackie Coleman's Reel
TTITLE13=The Ladies of Scatwell
TTITLE14=The Baron of Brackley
TTITLE15=Indiana
EXTD=
EXTT0=
EXTT1=
EXTT2=
EXTT3=
EXTT4=
EXTT5=
EXTT6=
EXTT7=
EXTT8=
EXTT9=
EXTT10=
EXTT11=
EXTT12=
EXTT13=
EXTT14=
EXTT15=
PLAYORDER=
